<svg version="1.1" xmlns="http://www.w3.org/2000/svg" xmlns:xlink="http://www.w3.org/1999/xlink" width="16" height="16" viewBox="0,0,256,256"><g fill="#ffffff" fill-rule="nonzero" stroke="none" stroke-width="1" stroke-linecap="butt" stroke-linejoin="miter" stroke-miterlimit="10" stroke-dasharray="" stroke-dashoffset="0" font-family="none" font-weight="none" font-size="none" text-anchor="none" style="mix-blend-mode: normal"><g transform="translate(0.016,0) scale(16,16)"><path d="M16,8.049c0,-4.446 -3.582,-8.05 -8,-8.05c-4.42,0.001 -8.002,3.604 -8.002,8.051c0,4.017 2.926,7.347 6.75,7.951v-5.625h-2.03v-2.326h2.032v-1.775c0,-2.017 1.195,-3.131 3.022,-3.131c0.876,0 1.791,0.157 1.791,0.157v1.98h-1.009c-0.993,0 -1.303,0.621 -1.303,1.258v1.51h2.218l-0.354,2.326h-1.865v5.625c3.824,-0.604 6.75,-3.934 6.75,-7.951"></path></g></g></svg>