<svg version="1.1" xmlns="http://www.w3.org/2000/svg" xmlns:xlink="http://www.w3.org/1999/xlink" width="16" height="16" viewBox="0,0,256,256"><g fill="#ffffff" fill-rule="nonzero" stroke="none" stroke-width="1" stroke-linecap="butt" stroke-linejoin="miter" stroke-miterlimit="10" stroke-dasharray="" stroke-dashoffset="0" font-family="none" font-weight="none" font-size="none" text-anchor="none" style="mix-blend-mode: normal"><g transform="scale(16,16)"><path d="M8,0c-2.171,0 -2.444,0.01 -3.297,0.048c-0.853,0.04 -1.434,0.174 -1.943,0.372c-0.53416,0.20033 -1.01786,0.5154 -1.417,0.923c-0.4076,0.39914 -0.72267,0.88284 -0.923,1.417c-0.198,0.508 -0.333,1.09 -0.372,1.94c-0.038,0.855 -0.048,1.127 -0.048,3.301c0,2.172 0.01,2.444 0.048,3.297c0.04,0.852 0.174,1.433 0.372,1.942c0.205,0.526 0.478,0.972 0.923,1.417c0.444,0.445 0.89,0.719 1.416,0.923c0.51,0.198 1.09,0.333 1.942,0.372c0.854,0.038 1.126,0.048 3.299,0.048c2.173,0 2.444,-0.01 3.298,-0.048c0.851,-0.04 1.434,-0.174 1.943,-0.372c0.5338,-0.20046 1.01715,-0.51552 1.416,-0.923c0.445,-0.445 0.718,-0.891 0.923,-1.417c0.197,-0.509 0.332,-1.09 0.372,-1.942c0.038,-0.853 0.048,-1.125 0.048,-3.298c0,-2.173 -0.01,-2.445 -0.048,-3.299c-0.04,-0.851 -0.175,-1.433 -0.372,-1.941c-0.20033,-0.53416 -0.5154,-1.01786 -0.923,-1.417c-0.39914,-0.4076 -0.88284,-0.72267 -1.417,-0.923c-0.51,-0.198 -1.092,-0.333 -1.943,-0.372c-0.854,-0.038 -1.125,-0.048 -3.299,-0.048zM7.283,1.442h0.718c2.136,0 2.389,0.007 3.232,0.046c0.78,0.035 1.204,0.166 1.486,0.275c0.373,0.145 0.64,0.319 0.92,0.599c0.28,0.28 0.453,0.546 0.598,0.92c0.11,0.281 0.24,0.705 0.275,1.485c0.039,0.843 0.047,1.096 0.047,3.231c0,2.135 -0.008,2.389 -0.047,3.232c-0.035,0.78 -0.166,1.203 -0.275,1.485c-0.12917,0.3469 -0.33376,0.66079 -0.599,0.919c-0.28,0.28 -0.546,0.453 -0.92,0.598c-0.28,0.11 -0.704,0.24 -1.485,0.276c-0.843,0.038 -1.096,0.047 -3.232,0.047c-2.136,0 -2.39,-0.009 -3.233,-0.047c-0.78,-0.036 -1.203,-0.166 -1.485,-0.276c-0.34717,-0.12874 -0.6614,-0.333 -0.92,-0.598c-0.26573,-0.2584 -0.47067,-0.57265 -0.6,-0.92c-0.109,-0.281 -0.24,-0.705 -0.275,-1.485c-0.038,-0.843 -0.046,-1.096 -0.046,-3.233c0,-2.137 0.008,-2.388 0.046,-3.231c0.036,-0.78 0.166,-1.204 0.276,-1.486c0.145,-0.373 0.319,-0.64 0.599,-0.92c0.28,-0.28 0.546,-0.453 0.92,-0.598c0.282,-0.11 0.705,-0.24 1.485,-0.276c0.738,-0.034 1.024,-0.044 2.515,-0.045zM12.271,2.77c-0.53019,0 -0.96,0.42981 -0.96,0.96c0,0.53019 0.42981,0.96 0.96,0.96c0.53019,0 0.96,-0.42981 0.96,-0.96c0,-0.53019 -0.42981,-0.96 -0.96,-0.96M8.001,3.892c-1.4831,-0.02314 -2.86356,0.75484 -3.61187,2.03552c-0.74831,1.28069 -0.74831,2.86527 0,4.14595c0.74831,1.28069 2.12876,2.05866 3.61187,2.03552c2.24407,-0.03501 4.0449,-1.86416 4.0449,-4.1085c0,-2.24434 -1.80083,-4.07349 -4.0449,-4.1085M8.001,5.333c1.47294,0 2.667,1.19406 2.667,2.667c0,1.47294 -1.19406,2.667 -2.667,2.667c-1.47294,0 -2.667,-1.19406 -2.667,-2.667c0,-1.47294 1.19406,-2.667 2.667,-2.667"></path></g></g></svg>